<?xml version="1.0" encoding="UTF-8" standalone="no"?>
<!-- Created with Inkscape (http://www.inkscape.org/) -->

<svg
   xmlns:dc="http://purl.org/dc/elements/1.1/"
   xmlns:cc="http://creativecommons.org/ns#"
   xmlns:rdf="http://www.w3.org/1999/02/22-rdf-syntax-ns#"
   xmlns:svg="http://www.w3.org/2000/svg"
   xmlns="http://www.w3.org/2000/svg"
   xmlns:sodipodi="http://sodipodi.sourceforge.net/DTD/sodipodi-0.dtd"
   xmlns:inkscape="http://www.inkscape.org/namespaces/inkscape"
   sodipodi:docname="heart.svg"
   inkscape:version="0.92.3 (2405546, 2018-03-11)"
   sodipodi:version="0.32"
   id="svg1326"
   height="375"
   width="350"
   version="1.1">
  <defs
     id="defs3" />
  <sodipodi:namedview
     inkscape:grid-bbox="false"
     gridtolerance="2.0000000px"
     inkscape:grid-points="false"
     showgrid="true"
     inkscape:window-y="0"
     inkscape:window-x="0"
     inkscape:window-height="1178"
     inkscape:window-width="1789"
     inkscape:current-layer="layer1"
     inkscape:document-units="in"
     inkscape:cy="169.46832"
     inkscape:cx="169.53432"
     inkscape:zoom="0.70365903"
     inkscape:pageshadow="2"
     inkscape:pageopacity="0.0"
     borderopacity="1.0"
     bordercolor="#666666"
     pagecolor="#ffffff"
     id="base"
     showguides="true"
     inkscape:guide-bbox="true"
     units="px"
     inkscape:window-maximized="0">
    <inkscape:grid
       type="xygrid"
       id="grid4528"
       empspacing="22" />
  </sodipodi:namedview>
  <metadata
     id="metadata4">
    <rdf:RDF>
      <cc:Work
         rdf:about="">
        <dc:format>image/svg+xml</dc:format>
        <dc:type
           rdf:resource="http://purl.org/dc/dcmitype/StillImage" />
        <dc:title>Anglo-American card suits</dc:title>
        <dc:creator>
          <cc:Agent>
            <dc:title>Jeff Bonham</dc:title>
          </cc:Agent>
        </dc:creator>
        <cc:license
           rdf:resource="http://creativecommons.org/licenses/by-sa/2.0/" />
        <dc:description>Anglo-American card suits: clubs, diamonds, hearts and spades.  Created in Inkscape.</dc:description>
        <dc:subject>
          <rdf:Bag>
            <rdf:li>anglo-american</rdf:li>
            <rdf:li>cards</rdf:li>
            <rdf:li>club</rdf:li>
            <rdf:li>clubs</rdf:li>
            <rdf:li>diamond</rdf:li>
            <rdf:li>diamonds</rdf:li>
            <rdf:li>heart</rdf:li>
            <rdf:li>hearts</rdf:li>
            <rdf:li>spade</rdf:li>
            <rdf:li>spades</rdf:li>
          </rdf:Bag>
        </dc:subject>
        <dc:source>http://commons.wikimedia.org/wiki/Image:Anglo-American_card_suits.svg</dc:source>
      </cc:Work>
      <cc:License
         rdf:about="http://creativecommons.org/licenses/by-sa/2.0/">
        <cc:permits
           rdf:resource="http://web.resource.org/cc/Reproduction" />
        <cc:permits
           rdf:resource="http://web.resource.org/cc/Distribution" />
        <cc:requires
           rdf:resource="http://web.resource.org/cc/Notice" />
        <cc:requires
           rdf:resource="http://web.resource.org/cc/Attribution" />
        <cc:permits
           rdf:resource="http://web.resource.org/cc/DerivativeWorks" />
        <cc:requires
           rdf:resource="http://web.resource.org/cc/ShareAlike" />
      </cc:License>
    </rdf:RDF>
  </metadata>
  <g
     id="layer1"
     inkscape:groupmode="layer"
     inkscape:label="Layer 1"
     transform="translate(0,-681)">
    <path
       sodipodi:nodetypes="ccccccccccccccccccccc"
       id="path30"
       d="m 172.64355,1053.2534 c -0.3432,-0.6182 -1.81867,-5.0882 -3.27883,-9.9332 -9.25379,-30.706 -26.43241,-61.79908 -55.20025,-99.91218 -10.80803,-14.3189 -20.981091,-26.9986 -48.489411,-60.4371 -31.85129,-38.7176 -40.97486,-51.1207 -50.18782,-68.2281 -5.440466,-10.1023 -11.0784464,-25.4736 -12.9337864,-35.2626 -1.85429,-9.7833 -1.88452,-25.7668 -0.0645,-34.0895 7.40328,-33.8542 37.4747064,-59.3947 73.4329464,-62.3688 41.192881,-3.407 76.232651,17.4024 94.643421,56.2067 l 4.11116,8.6651 3.09417,-6.8454 c 4.59763,-10.1714 9.02537,-17.0508 16.49892,-25.6341 19.02798,-21.8536 41.67355,-32.5586 68.95442,-32.5961 12.21998,-0.017 19.2223,0.9975 29.63542,4.2926 15.57394,4.9281 27.29757,12.6053 37.73867,24.7131 27.20989,31.5534 23.98818,74.5399 -9.53244,127.1876 -7.81932,12.2811 -21.92763,30.452 -41.32995,53.2312 -22.34309,26.2319 -33.26023,39.5635 -44.43732,54.2652 -26.79149,35.24 -44.8099,67.26018 -54.72093,97.24338 -1.51191,4.5739 -3.09592,8.836 -3.52003,9.4713 -0.98487,1.4752 -3.60189,1.4936 -4.41387,0.031 z"
       style="fill:#ff0000;fill-opacity:1"
       inkscape:connector-curvature="0" />
  </g>
</svg>
